<svg xmlns="http://www.w3.org/2000/svg" width="20" height="18.896" viewBox="0 0 20 18.896">
    <g data-name="그룹 150">
        <g data-name="그룹 149">
            <g data-name="그룹 148">
                <path data-name="패스 195" d="M89.469 87.364a7.625 7.625 0 1 1-9.751.091c1.151-1.039-.552-2.73-1.7-1.7a10.012 10.012 0 1 0 13.144-.091c-1.159-1.015-2.863.675-1.7 1.7z" transform="translate(-74.648 -84.387)" style="fill:#8c91ab"/>
            </g>
        </g>
        <path data-name="패스 196" d="M96.351 74.781a1.447 1.447 0 0 1 1.449-1.448 1.448 1.448 0 0 1 1.448 1.448V83.1a1.447 1.447 0 0 1-1.448 1.451 1.447 1.447 0 0 1-1.449-1.451z" transform="translate(-87.799 -73.333)" style="fill:#8c91ab"/>
    </g>
</svg>
