<svg xmlns="http://www.w3.org/2000/svg" width="24" height="24" viewBox="0 0 24 24">
    <g data-name="그룹 147">
        <path data-name="패스 193" d="M69.138 144.846a3.051 3.051 0 0 0 3.138-3.138v-1.569a3.138 3.138 0 0 0-6.276 0v1.569a3.051 3.051 0 0 0 3.138 3.138z" transform="translate(-57.138 -132.831)" style="fill:#8c91ab"/>
        <path data-name="패스 194" d="M72.493 162.846v-4.184c0-2.344-4.146-3.661-6.247-3.661S60 156.318 60 158.661v4.184a10.424 10.424 0 0 0 12.493.001z" transform="translate(-54.247 -141.461)" style="fill:#8c91ab"/>
        <path data-name="타원 2" d="M11-1a12 12 0 0 1 8.485 20.485A12 12 0 1 1 6.329-.057 11.925 11.925 0 0 1 11-1zm0 22.957A10.957 10.957 0 1 0 .043 11 10.969 10.969 0 0 0 11 21.957z" transform="translate(1 1)" style="fill:#8c91ab"/>
    </g>
</svg>
