<svg xmlns="http://www.w3.org/2000/svg" width="15" height="15" viewBox="0 0 15 15">
    <path data-name="Path 306" d="M536.213 118.641c.381-2.382 2.712-3.485 4.7-3.995a.688.688 0 0 0 .5-.675v-1.246a.721.721 0 0 0-.143-.432 6.79 6.79 0 0 1-1.244-3.9c0-2.278 1.253-3.751 3.19-3.751s3.19 1.473 3.19 3.751a6.792 6.792 0 0 1-1.244 3.9.716.716 0 0 0-.143.432v1.246a.688.688 0 0 0 .5.675c1.983.509 4.315 1.612 4.695 3.995z" transform="translate(-535.713 -104.141)" style="fill:none;stroke:#9194a5;stroke-linecap:round;stroke-linejoin:round"/>
</svg>
